<svg width="24" height="24" viewBox="0 0 24 24" fill="none" xmlns="http://www.w3.org/2000/svg">
<path d="M14.9999 17C16.1044 17 16.9999 16.1046 16.9999 15C16.9999 13.8954 16.1044 13 14.9999 13C13.8953 13 12.9999 13.8954 12.9999 15C12.9999 16.1046 13.8953 17 14.9999 17Z" fill="black" fill-opacity="0.48"/>
<path fill-rule="evenodd" clip-rule="evenodd" d="M5.99988 3C4.34302 3 2.99988 4.34315 2.99988 6V18C2.99988 19.6569 4.34302 21 5.99988 21H17.9999C19.6567 21 20.9999 19.6569 20.9999 18V6C20.9999 4.34315 19.6567 3 17.9999 3H5.99988ZM4.99988 18V7H18.9999V18C18.9999 18.5523 18.5522 19 17.9999 19H5.99988C5.44759 19 4.99988 18.5523 4.99988 18Z" fill="black" fill-opacity="0.48"/>
</svg>
