<svg width="64" height="64" viewBox="0 0 64 64" fill="none" xmlns="http://www.w3.org/2000/svg">
<circle cx="31.9999" cy="32" r="32" fill="#41522E" fill-opacity="0.05"/>
<g clip-path="url(#clip0)">
<path d="M29.9358 14.335C29.1647 15.0605 26.0585 17.9801 23.037 20.8213C20.0128 23.6596 17.1171 26.3847 16.5975 26.8722C16.078 27.3598 15.3397 28.0534 14.9569 28.4104C14.5741 28.7702 14.2022 29.1214 14.1311 29.1939L13.9999 29.3245L14.9022 30.3983C15.3971 30.9875 15.821 31.4692 15.8401 31.4692C15.862 31.4663 17.4889 29.9572 19.4577 28.1143C29.7882 18.4444 31.4561 16.8889 31.4753 16.8947C31.4862 16.9005 32.7604 18.0933 34.3081 19.5472C35.853 21.0012 39.3448 24.2806 42.0628 26.8374C44.7807 29.3942 47.0175 31.4866 47.0311 31.4866C47.0448 31.4866 47.0639 31.4721 47.0721 31.4576C47.0858 31.4344 47.1022 31.4373 47.1296 31.4605C47.1815 31.504 47.1022 31.5911 48.0565 30.4419C48.4749 29.9398 48.8577 29.4813 48.9096 29.4232L49.0026 29.3187L46.7112 27.1741C45.4507 25.9929 42.4893 23.2184 40.1268 21.0099C37.7671 18.7985 34.8796 16.0966 33.7093 15.0025L31.5874 13.0145H31.4643H31.3413L29.9358 14.335Z" fill="#41522E"/>
<path d="M29.605 21.0071C28.6096 21.9416 25.8589 24.5274 23.4936 26.7504L19.1952 30.7931L19.2007 39.1281L19.2089 47.4631L19.269 47.5821C19.3018 47.6489 19.3811 47.7504 19.444 47.8056C19.671 48.0145 19.3784 48 23.7124 48H27.6171L27.6225 44.3056C27.6307 40.6315 27.6307 40.614 27.6882 40.4834C27.7593 40.3151 27.896 40.17 28.0546 40.0946C28.1776 40.0336 28.1968 40.0336 31.4014 40.0249C34.9671 40.0162 34.8139 40.0104 35.0163 40.199C35.1585 40.3325 35.2378 40.4805 35.2706 40.6721C35.2925 40.7882 35.3007 41.9897 35.3007 44.4217V48L39.3585 47.9942L43.419 47.9855L43.501 47.9014C43.5475 47.8549 43.6241 47.7185 43.6733 47.5966L43.7635 47.3761L43.769 39.0759L43.7745 30.7757L37.6495 25.044C34.1768 21.7936 31.4999 19.3093 31.4698 19.3093C31.4343 19.3064 30.7944 19.8897 29.605 21.0071Z" fill="#41522E"/>
</g>
<defs>
<clipPath id="clip0">
<rect width="35" height="35" fill="white" transform="translate(13.9999 13)"/>
</clipPath>
</defs>
</svg>
